<svg width="21" height="37" viewBox="0 0 21 37" fill="none" xmlns="http://www.w3.org/2000/svg">
<path d="M5.90625 18.5002L19.6875 32.2814C20.1563 32.7502 20.3831 33.2971 20.3681 33.9221C20.3531 34.5471 20.1106 35.0939 19.6406 35.5627C19.1706 36.0314 18.6238 36.2658 18 36.2658C17.3763 36.2658 16.8294 36.0314 16.3594 35.5627L1.92188 21.172C1.54688 20.797 1.26563 20.3752 1.07813 19.9064C0.890625 19.4377 0.796875 18.9689 0.796875 18.5002C0.796875 18.0314 0.890625 17.5627 1.07813 17.0939C1.26563 16.6252 1.54688 16.2033 1.92188 15.8283L16.3594 1.3908C16.8281 0.922045 17.3831 0.69517 18.0244 0.71017C18.6656 0.72517 19.22 0.96767 19.6875 1.43767C20.155 1.90767 20.3894 2.45455 20.3906 3.0783C20.3919 3.70205 20.1575 4.24892 19.6875 4.71892L5.90625 18.5002Z" fill="black"/>
</svg>
