<svg width="24" height="24" viewBox="0 0 24 24" fill="none" xmlns="http://www.w3.org/2000/svg">
<path d="M11.9999 14.4499L3.4249 23.0249C3.10407 23.3457 2.69574 23.5062 2.1999 23.5062C1.70407 23.5062 1.29574 23.3457 0.974902 23.0249C0.654068 22.7041 0.493652 22.2957 0.493652 21.7999C0.493652 21.3041 0.654068 20.8957 0.974902 20.5749L9.5499 11.9999L0.974902 3.4249C0.654068 3.10407 0.493652 2.69574 0.493652 2.1999C0.493652 1.70407 0.654068 1.29574 0.974902 0.974902C1.29574 0.654068 1.70407 0.493652 2.1999 0.493652C2.69574 0.493652 3.10407 0.654068 3.4249 0.974902L11.9999 9.5499L20.5749 0.974902C20.8957 0.654068 21.3041 0.493652 21.7999 0.493652C22.2957 0.493652 22.7041 0.654068 23.0249 0.974902C23.3457 1.29574 23.5062 1.70407 23.5062 2.1999C23.5062 2.69574 23.3457 3.10407 23.0249 3.4249L14.4499 11.9999L23.0249 20.5749C23.3457 20.8957 23.5062 21.3041 23.5062 21.7999C23.5062 22.2957 23.3457 22.7041 23.0249 23.0249C22.7041 23.3457 22.2957 23.5062 21.7999 23.5062C21.3041 23.5062 20.8957 23.3457 20.5749 23.0249L11.9999 14.4499Z" fill="black"/>
</svg>
