<svg width="24" height="21" viewBox="0 0 24 21" fill="none" xmlns="http://www.w3.org/2000/svg">
<path d="M11.625 20.6718L10.6459 19.787C8.53792 17.8616 6.79417 16.213 5.41467 14.8412C4.03517 13.4704 2.94629 12.2614 2.14804 11.2142C1.35065 10.1663 0.793083 9.21862 0.475333 8.37129C0.158444 7.5231 0 6.67017 0 5.8125C0 4.1695 0.558 2.79 1.674 1.674C2.79 0.558 4.1695 0 5.8125 0C6.94917 0 8.01479 0.290625 9.00938 0.871875C10.004 1.45312 10.8758 2.29831 11.625 3.40742C12.3742 2.29831 13.246 1.45312 14.2406 0.871875C15.2352 0.290625 16.3008 0 17.4375 0C19.0805 0 20.46 0.558 21.576 1.674C22.692 2.79 23.25 4.1695 23.25 5.8125C23.25 6.67017 23.0916 7.52267 22.7747 8.37C22.4569 9.21819 21.8993 10.1663 21.102 11.2142C20.3037 12.2614 19.2187 13.4704 17.847 14.8412C16.4761 16.213 14.728 17.862 12.6028 19.7883L11.625 20.6718Z" fill="black"/>
</svg>
