<svg width="32" height="24" viewBox="0 0 32 24" fill="none" xmlns="http://www.w3.org/2000/svg">
<path d="M32 12.0325C32.0024 12.5266 31.8949 13.0152 31.6849 13.4644C31.4749 13.9136 31.1674 14.3126 30.784 14.6336L20.544 23.2204C20.04 23.6388 19.4232 23.9055 18.768 23.9882C18.6133 24.0039 18.4586 24.0039 18.304 23.9882C17.8008 23.9919 17.3032 23.8848 16.848 23.6749C16.2524 23.4069 15.7433 22.9842 15.376 22.4527C15.0268 21.9067 14.8334 21.279 14.816 20.635V15.5895L5.72799 23.1891C5.22603 23.6106 4.60824 23.8777 3.95199 23.9569C3.79733 23.9726 3.64266 23.9726 3.488 23.9569C2.98482 23.9605 2.48725 23.8534 2.032 23.6435C1.43818 23.3795 0.933225 22.9556 0.575999 22.4213C0.213643 21.8804 0.0140356 21.2505 0 20.6037V3.36734C0.0149989 2.72335 0.213116 2.09621 0.57208 1.55643C0.931045 1.01666 1.43663 0.585632 2.032 0.311812C2.63186 0.0419665 3.29759 -0.0556338 3.95185 0.030352C4.6061 0.116338 5.222 0.382379 5.72799 0.797563L14.816 8.41288V3.38301C14.8229 2.9001 14.9343 2.42412 15.1428 1.98647C15.3514 1.54882 15.6523 1.15945 16.0258 0.844054C16.3992 0.528655 16.8367 0.294397 17.3094 0.156736C17.7821 0.0190742 18.2792 -0.0188616 18.768 0.0454322C19.4161 0.136082 20.0256 0.401977 20.528 0.813232L30.784 9.41572C31.1664 9.73538 31.472 10.1302 31.68 10.5753C31.8928 11.0344 32.0016 11.5311 32 12.0325Z" fill="black"/>
</svg>
