<svg width="108" height="108" viewBox="0 0 108 108" fill="none" xmlns="http://www.w3.org/2000/svg">
<path d="M0.666748 21.9998C0.666748 11.9412 0.666748 6.91717 3.79208 3.79184C6.91741 0.666504 11.9414 0.666504 22.0001 0.666504C32.0587 0.666504 37.0827 0.666504 40.2081 3.79184C43.3334 6.91717 43.3334 11.9412 43.3334 21.9998V85.9998C43.3334 96.0585 43.3334 101.083 40.2081 104.208C37.0827 107.333 32.0587 107.333 22.0001 107.333C11.9414 107.333 6.91741 107.333 3.79208 104.208C0.666748 101.083 0.666748 96.0585 0.666748 85.9998V21.9998ZM64.6667 21.9998C64.6667 11.9412 64.6668 6.91717 67.7921 3.79184C70.9174 0.666504 75.9414 0.666504 86.0001 0.666504C96.0588 0.666504 101.083 0.666504 104.208 3.79184C107.333 6.91717 107.333 11.9412 107.333 21.9998V85.9998C107.333 96.0585 107.333 101.083 104.208 104.208C101.083 107.333 96.0588 107.333 86.0001 107.333C75.9414 107.333 70.9174 107.333 67.7921 104.208C64.6668 101.083 64.6667 96.0585 64.6667 85.9998V21.9998Z" fill="black"/>
</svg>
