<svg width="32" height="24" viewBox="0 0 32 24" fill="none" xmlns="http://www.w3.org/2000/svg">
<path d="M3.53842e-05 11.9675C-0.00240216 11.4734 0.105119 10.9848 0.315122 10.5356C0.525123 10.0864 0.832563 9.68738 1.21604 9.36637L11.456 0.779551C11.96 0.361176 12.5768 0.0945227 13.232 0.0117514C13.3867 -0.00391932 13.5414 -0.00391931 13.696 0.0117515C14.1992 0.00812566 14.6968 0.115221 15.152 0.325137C15.7476 0.593071 16.2567 1.0158 16.624 1.54735C16.9732 2.09333 17.1666 2.72099 17.184 3.365L17.184 8.41054L26.272 0.810892C26.774 0.389394 27.3918 0.122312 28.048 0.0430924C28.2027 0.0274216 28.3573 0.0274216 28.512 0.0430924C29.0152 0.0394666 29.5128 0.146562 29.968 0.356478C30.5618 0.620485 31.0668 1.04436 31.424 1.57869C31.7864 2.11964 31.986 2.74953 32 3.39634L32 20.6327C31.985 21.2767 31.7869 21.9038 31.4279 22.4436C31.069 22.9833 30.5634 23.4144 29.968 23.6882C29.3681 23.958 28.7024 24.0556 28.0482 23.9696C27.3939 23.8837 26.778 23.6176 26.272 23.2024L17.184 15.5871L17.184 20.617C17.1771 21.0999 17.0657 21.5759 16.8572 22.0135C16.6486 22.4512 16.3477 22.8405 15.9742 23.1559C15.6008 23.4713 15.1633 23.7056 14.6906 23.8433C14.2179 23.9809 13.7208 24.0189 13.232 23.9546C12.5839 23.8639 11.9744 23.598 11.472 23.1868L1.21603 14.5843C0.833636 14.2646 0.528037 13.8698 0.320037 13.4247C0.107238 12.9656 -0.00156302 12.4689 3.53842e-05 11.9675Z" fill="black"/>
</svg>
