<svg width="26" height="24" viewBox="0 0 26 24" fill="none" xmlns="http://www.w3.org/2000/svg">
<path d="M13 23.6396L11.1875 22.0147C9.08333 20.1188 7.34375 18.4834 5.96875 17.1084C4.59375 15.7334 3.5 14.4988 2.6875 13.4046C1.875 12.3113 1.3075 11.3063 0.985 10.3896C0.6625 9.47298 0.500833 8.53548 0.5 7.57715C0.5 5.61881 1.15625 3.9834 2.46875 2.6709C3.78125 1.3584 5.41667 0.702148 7.375 0.702148C8.45833 0.702148 9.48958 0.931315 10.4688 1.38965C11.4479 1.84798 12.2917 2.49381 13 3.32715C13.7083 2.49381 14.5521 1.84798 15.5313 1.38965C16.5104 0.931315 17.5417 0.702148 18.625 0.702148C20.5833 0.702148 22.2188 1.3584 23.5313 2.6709C24.8438 3.9834 25.5 5.61881 25.5 7.57715C25.5 8.53548 25.3388 9.47298 25.0163 10.3896C24.6938 11.3063 24.1258 12.3113 23.3125 13.4046C22.5 14.4988 21.4063 15.7334 20.0313 17.1084C18.6563 18.4834 16.9167 20.1188 14.8125 22.0147L13 23.6396ZM13 20.2646C15 18.473 16.6458 16.9367 17.9375 15.6559C19.2292 14.3751 20.25 13.2605 21 12.3121C21.75 11.3638 22.2708 10.5196 22.5625 9.77965C22.8542 9.03965 23 8.30548 23 7.57715C23 6.32715 22.5833 5.28548 21.75 4.45215C20.9167 3.61882 19.875 3.20215 18.625 3.20215C17.6458 3.20215 16.7396 3.47798 15.9063 4.02965C15.0729 4.58131 14.5 5.28465 14.1875 6.13965H11.8125C11.5 5.28548 10.9271 4.58257 10.0938 4.0309C9.26042 3.47923 8.35417 3.20298 7.375 3.20215C6.125 3.20215 5.08333 3.61882 4.25 4.45215C3.41667 5.28548 3 6.32715 3 7.57715C3 8.30631 3.14583 9.0409 3.4375 9.7809C3.72917 10.5209 4.25 11.3646 5 12.3121C5.75 13.2596 6.77083 14.3742 8.0625 15.6559C9.35417 16.9376 11 18.4738 13 20.2646Z" fill="black"/>
</svg>
